**ABCDEFGHIJKLMNOPQRSTUVWXYZabcdefghijklmnopqrstuvwxyz**************************
**PARASOLID !"#$%&'()*+,-./:;<=>?@[\]^_`{|}~0123456789**************************
**PART1;
MC=unknown;
MC_MODEL=unknown;
MC_ID=unknown;
OS=unknown;
OS_RELEASE=unknown;
FRU=Parasolid 30.1.168;
APPL=Onshape;
SITE=unknown;
USER=unknown;
FORMAT=text;
GUISE=transmit;
KEY=BTGapi::writeModels_.xmt;
FILE=BTGapi::writeModels_.xmt;
DATE=2018-03-14T14:26:28 (UTC);
**PART2;
SCH=SCH_3001168_30100;
USFLD_SIZE=0;
**PART3;
**END_OF_HEADER*****************************************************************
T51 : TRANSMIT FILE created by modeller version 300116823 SCH_3001168_30100_1300
6214 0 12 34 CCCCCCI4 mesh1006 0 I8 polyline1008 0 CCCCCCCDI5 owner1040 0 CCCCCC
I13 boundary_mesh1006 0 I17 boundary_polyline1008 0 CCCA16 index_map_offset0 0 1
 dA9 index_map82 0 A17 node_id_index_map82 0 A20 schema_embedding_map82 0 A5 chi
ld12 0 A14 lowest_node_id0 0 1 dA16 mesh_offset_data206 0 Z1 461 2 3 0 0 0 0 0 0
 1e3 1e-8 0 4 0 1 0 1 1 5 6 7 8 0 0 9 10 11 0 0 0 0 0 0 0 81 255 1 2 451 12 1 13
 0 0 0 14 70 11 CI9 list_type0 0 1 uI10 notransmit0 0 1 lCCCDCCDI12 finger_index
0 0 1 dI12 finger_block1012 0 CZ3 0 4 T1 0 0 5 20 1 15 15 13 255 5 132 0 1 0 16
 0 0 17 0 50 255 6 127 0 16 18 0 0 +-.0036722868680954 .03657894799485805 .0025
 0 1 0 0 0 1 30 255 7 131 0 10 19 0 0 +-.0086722868680954 .03657894799485805 .00
25 0 0 -1 29 255 8 108 0 20 21 0 .001327713131904602 .03657894799485805 0 19 8 C
CCCCCCA5 owner12 0 Z9 43 0 1 17 0 22 V0 16 255 10 115 23 ?24 0 25 7 0 0 1 18 255
 11 37 26 27 0 28 29 ?1 81 1 26 150 30 11 0 0 31 32 33 17 255 27 0 34 35 36 11 3
7 38 0 39 -18 28 32 40 41 11 42 43 ?1 29 29 39 0 11 43 44 .001327713131904602 .0
3657894799485805 .0025 29 43 34 0 28 45 29 .001327713131904604 -.003421052005141
97 .0025 29 44 111 0 46 29 47 -.0086722868680954 .03657894799485805 0 18 46 99 4
8 24 49 0 44 ?1 29 47 110 0 49 44 21 -.0086722868680954 -.003421052005141975 0 1
8 49 95 32 50 51 46 47 ?1 29 21 109 0 51 47 8 .001327713131904604 -.003421052005
14197 0 18 51 91 52 53 20 49 21 ?1 81 1 52 153 30 51 0 0 54 40 55 17 53 0 34 36
 35 51 56 57 0 58 +18 20 87 31 37 59 51 8 ?1 81 1 31 149 30 20 0 0 60 26 61 17 3
7 0 62 63 39 20 27 38 0 64 +18 59 22 60 65 42 20 66 ?1 81 1 60 148 30 59 0 0 48
 31 67 17 65 0 62 39 63 59 24 10 0 68 -18 42 27 54 69 28 59 45 ?1 29 66 24 0 59
 0 45 -.0086722868680954 .03657894799485805 .0025 29 45 29 0 42 66 43 -.00867228
68680954 -.003421052005141975 .0025 81 1 54 152 30 42 0 0 32 52 70 17 69 0 71 41
 72 42 68 73 0 74 +15 255 71 5 0 72 75 0 17 41 0 71 76 69 28 77 78 0 56 +17 72 0
 71 69 76 59 39 79 0 0 -17 68 0 80 24 74 59 69 73 0 72 -16 73 10 81 ?69 78 79 82
 0 0 1 17 74 0 80 68 50 42 83 25 0 77 -15 80 120 0 50 84 0 17 50 0 80 74 24 49 8
5 86 0 83 +17 83 0 87 58 77 49 74 25 0 88 +16 25 114 89 ?83 10 57 19 0 0 1 17 77
 0 87 83 56 42 41 78 0 0 -15 87 118 0 58 90 0 17 56 0 87 77 58 28 53 57 0 35 -16
 78 14 91 ?41 92 73 93 0 0 1 81 1 91 162 30 78 0 0 94 95 96 16 92 18 97 ?35 38 7
8 98 0 0 1 30 93 15 0 78 82 98 0 +-.003672286868095395 -.003421052005141975 .002
5 1 0 0 30 82 11 0 73 99 93 0 +-.0086722868680954 .01657894799485805 .0025 43368
0868994202e-31 -1 0 30 98 19 0 92 93 100 0 +.001327713131904602 .016578947994858
05 .0025 596311194867028e-31 -1 0 30 100 107 0 101 98 102 0 +-.0036722868680954
 .03657894799485805 0 1 0 0 16 101 83 103 ?64 86 104 100 0 0 1 30 102 106 0 86 1
00 105 0 +-.0086722868680954 .01657894799485805 0 433680868994202e-31 -1 0 16 86
 79 95 ?50 106 101 102 0 0 1 30 105 105 0 106 102 107 0 +-.003672286868095395 -.
003421052005141975 0 1 0 0 16 106 75 94 ?58 108 86 105 0 0 1 30 107 104 0 108 10
5 109 0 +.001327713131904602 .01657894799485805 0 596311194867028e-31 -1 0 16 10
8 71 110 ?111 79 106 107 0 0 1 30 109 128 0 38 107 112 0 +.001327713131904602 .0
3657894799485805 .0025 0 0 -1 16 38 112 113 ?37 57 92 109 0 0 1 30 112 129 0 57
 109 19 0 +.001327713131904604 -.00342105200514197 .0025 0 0 -1 16 57 113 114 ?5
3 25 38 112 0 0 1 30 19 130 0 25 112 7 0 +-.0086722868680954 -.00342105200514197
5 .0025 0 0 -1 81 1 114 158 30 57 0 0 89 103 115 80 255 1 30 116 117 9000 0 0 0
 0 3 6 0 0 0 FFTFTFTTFFFFFF1 81 1 89 157 30 25 0 0 113 114 118 81 1 103 159 30 1
01 0 0 114 119 120 82 255 3 115 6 3 1 81 1 119 160 30 79 0 0 103 94 121 82 3 120
 6 4 1 16 79 6 119 ?39 73 108 99 0 0 1 81 1 94 161 30 106 0 0 119 91 122 82 3 12
1 6 5 1 82 3 122 6 6 1 17 39 0 62 37 65 11 72 79 0 76 +30 99 7 0 79 123 82 0 +-.
0036722868680954 .03657894799485805 .0025 1 0 0 31 255 123 412 0 104 124 99 0 --
.0036722868680954 .03157894799485805 .0025 0 0 1 1 0 0 .00225 16 104 269 125 ?12
6 101 127 123 0 0 1 31 124 413 0 127 128 123 0 --.0036722868680954 .021578947994
85805 .0025 0 0 1 1 0 0 .00225 16 127 302 129 ?130 104 131 124 0 0 1 31 128 414
 0 131 132 124 0 --.0036722868680954 .01157894799485802 .0025 0 0 1 1 0 0 .00225
 16 131 335 133 ?134 127 135 128 0 0 1 31 132 415 0 135 136 128 0 --.00367228686
80954 .001578947994858025 .0025 0 0 1 1 0 0 .00225 16 135 368 137 ?138 131 139 1
32 0 0 1 31 136 417 0 140 141 132 0 +-.0036722868680954 .001578947994858025 0 0
 0 -1 -1 0 0 .00225 16 140 363 142 ?143 144 0 136 0 0 1 31 141 419 0 144 145 136
 0 +-.0036722868680954 .01157894799485802 0 0 0 -1 -1 0 0 .00225 16 144 330 146
 ?147 148 140 141 0 0 1 31 145 421 0 148 149 141 0 +-.0036722868680954 .02157894
799485805 0 0 0 -1 -1 0 0 .00225 16 148 297 150 ?151 139 144 145 0 0 1 31 149 42
3 0 139 0 145 0 +-.0036722868680954 .03157894799485805 0 0 0 -1 -1 0 0 .00225 16
 139 264 152 ?153 135 148 149 0 0 1 81 1 152 435 30 139 0 0 154 150 155 17 153 0
 156 153 153 0 157 139 0 0 +15 156 292 0 153 158 0 17 157 0 159 157 157 0 153 13
9 0 0 -15 159 215 0 157 160 161 14 255 160 63 162 ?163 75 159 5 164 -0 0 163 75
 22 15 161 208 0 165 160 166 17 165 0 161 165 165 0 151 148 0 0 -15 166 201 0 16
7 160 168 17 167 0 166 167 167 0 147 144 0 0 -15 168 194 0 169 160 170 17 169 0
 168 169 169 0 143 140 0 0 -15 170 70 0 64 160 0 17 64 0 170 111 85 20 63 101 0
 36 +17 111 0 170 88 64 51 36 108 0 0 +17 85 0 170 64 88 46 50 86 0 63 -17 63 0
 62 65 37 46 64 101 0 0 -17 36 0 34 27 53 20 111 108 0 0 -15 34 116 0 36 171 0 1
4 171 117 172 ?75 90 34 5 173 +0 0 75 90 22 81 1 172 455 174 171 175 0 176 177 1
78 14 75 1 177 ?160 171 179 5 180 +0 0 160 171 22 14 90 119 176 ?171 84 87 5 181
 -0 0 171 84 22 50 173 124 0 171 164 181 0 +.001327713131904602 .016578947994858
05 .0025 1 596311194867028e-31 0 -596311194867028e-31 1 0 13 22 44 0 0 0 0 0 0 9
 16 14 16 123 182 ?84 0 62 5 6 +0 0 84 0 22 81 1 182 452 174 16 183 0 0 184 185
 14 84 121 184 ?90 16 80 5 18 -0 0 90 16 22 15 62 122 0 63 16 0 81 1 184 453 174
 84 186 0 182 176 187 50 18 126 0 84 181 6 0 +-.0086722868680954 .01657894799485
805 .0025 1 433680868994202e-31 0 -433680868994202e-31 1 0 50 181 125 0 90 173 1
8 0 +-.003672286868095395 -.003421052005141975 .0025 0 1 0 0 0 1 80 1 174 0 188
 8001 0 0 0 0 3 5 0 0 0 FFFFTFTFFFFFFF2 81 1 186 171 30 84 0 184 189 175 190 81
 1 176 454 174 90 189 0 184 172 191 83 255 3 187 .615686274509804 .8117647058823
53 .929411764705882 81 1 189 170 30 90 0 176 183 186 192 83 3 191 .6156862745098
04 .811764705882353 .929411764705882 81 1 183 167 30 16 0 182 97 189 193 82 3 19
2 6 3 2 81 1 97 166 30 92 0 0 110 183 194 82 3 193 6 0 2 81 1 110 165 30 108 0 0
 81 97 195 82 3 194 6 11 1 81 1 81 164 30 73 0 0 95 110 196 82 3 195 6 10 1 81 1
 95 163 30 86 0 0 91 81 197 82 3 196 6 9 1 82 3 197 6 8 1 81 1 175 172 30 171 0
 172 186 154 198 82 3 190 6 4 2 81 1 154 173 30 1 0 199 175 152 200 82 3 198 6 5
 2 81 1 199 449 201 1 154 13 0 0 202 82 3 200 6 0 3 80 1 201 203 204 8038 0 0 0
 0 0 0 0 0 0 TTTTTTTTTTTTTF10 81 1 13 450 203 1 199 2 0 0 205 98 255 9 202 112 9
7 114 116 74 111 105 110 116 80 1 203 206 207 8017 0 0 0 0 0 0 0 0 0 TTTTTTTTTTT
TTF3 84 255 9 205 partJoint79 255 13 207 SDL/TYSA_NAME79 14 204 SDL/TYSA_UNAME79
 15 188 SDL/TYSA_COLOUR83 3 185 .615686274509804 .811764705882353 .9294117647058
82 50 164 103 0 160 180 173 0 +-.0036722868680954 .01657894799485805 0 0 0 1 1 0
 0 50 180 2 0 75 208 164 0 +-.0036722868680954 .01657894799485805 .0025 0 0 1 1
 0 0 51 255 208 402 0 163 209 180 0 --.0036722868680954 .001578947994858025 .002
675968196406005 0 0 -1 .00225 -1 0 0 14 163 387 210 ?211 160 212 5 208 +0 0 211
 160 22 51 209 405 0 211 213 208 0 --.0036722868680954 .01157894799485802 .00267
5968196406005 0 0 -1 .00225 -1 0 0 14 211 354 214 ?215 163 216 5 209 +0 0 215 16
3 22 51 213 408 0 215 217 209 0 --.0036722868680954 .02157894799485805 .00267596
8196406005 0 0 -1 .00225 -1 0 0 14 215 321 218 ?158 211 219 5 213 +0 0 158 211 2
2 51 217 411 0 158 0 213 0 --.0036722868680954 .03157894799485805 .0026759681964
06005 0 0 -1 .00225 -1 0 0 14 158 288 220 ?0 215 221 5 217 +0 0 0 215 22 81 1 22
0 461 174 158 222 0 218 0 223 15 221 291 0 224 158 156 17 224 0 221 224 224 0 12
6 104 0 0 -17 126 0 179 126 126 0 224 104 0 0 +15 179 239 0 126 75 225 15 225 23
3 0 130 75 226 17 130 0 225 130 130 0 227 127 0 0 +15 226 227 0 134 75 228 17 13
4 0 226 134 134 0 229 131 0 0 +15 228 221 0 138 75 71 17 138 0 228 138 138 0 230
 135 0 0 +17 230 0 212 230 230 0 138 135 0 0 -15 212 390 0 230 163 231 15 231 39
1 0 143 163 0 17 143 0 231 143 143 0 169 140 0 0 +17 229 0 216 229 229 0 134 131
 0 0 -15 216 357 0 229 211 232 15 232 358 0 147 211 0 17 147 0 232 147 147 0 167
 144 0 0 +17 227 0 219 227 227 0 130 127 0 0 -15 219 324 0 227 215 233 15 233 32
5 0 151 215 0 17 151 0 233 151 151 0 165 148 0 0 +81 1 222 439 30 158 0 220 142
 234 235 81 1 218 460 174 215 234 0 214 220 236 83 3 223 .615686274509804 .81176
4705882353 .929411764705882 81 1 234 440 30 215 0 218 222 237 238 81 1 214 459 1
74 211 237 0 210 218 239 83 3 236 .615686274509804 .811764705882353 .92941176470
5882 81 1 237 441 30 211 0 214 234 240 241 81 1 210 458 174 163 240 0 162 214 24
2 83 3 239 .615686274509804 .811764705882353 .929411764705882 81 1 240 442 30 16
3 0 210 237 243 244 81 1 162 457 174 160 243 0 177 210 245 83 3 242 .61568627450
9804 .811764705882353 .929411764705882 81 1 243 443 30 160 0 162 240 246 247 81
 1 177 456 174 75 246 0 172 162 248 83 3 245 .615686274509804 .811764705882353 .
929411764705882 81 1 246 444 30 75 0 177 243 125 249 83 3 248 .615686274509804 .
811764705882353 .929411764705882 81 1 125 445 30 104 0 0 246 129 250 82 3 249 23
 5 2 81 1 129 446 30 127 0 0 125 133 251 82 3 250 23 4 1 81 1 133 447 30 131 0 0
 129 137 252 82 3 251 23 5 1 81 1 137 448 30 135 0 0 133 0 253 82 3 252 23 6 1 8
2 3 253 23 7 1 82 3 247 23 4 2 82 3 244 23 3 2 82 3 241 23 2 2 82 3 238 23 1 2 8
1 1 142 438 30 140 0 0 146 222 254 82 3 235 23 0 2 81 1 146 437 30 144 0 0 150 1
42 255 82 3 254 23 3 1 81 1 150 436 30 148 0 0 152 146 256 82 3 255 23 2 1 82 3
 256 23 1 1 83 3 178 .615686274509804 .811764705882353 .929411764705882 17 88 0
 170 85 111 49 58 106 0 0 -17 58 0 87 56 83 51 88 106 0 111 +82 3 155 23 0 1 17
 76 0 71 72 41 11 35 92 0 0 -17 35 0 34 53 27 28 76 92 0 0 +81 1 113 156 30 38 0
 0 23 89 257 82 3 118 6 2 1 81 1 23 155 30 10 0 0 40 113 258 82 3 257 6 1 1 81 1
 40 154 30 28 0 0 52 23 259 82 3 258 6 0 1 82 3 259 6 7 0 79 9 117 BTI/DetId82 3
 96 6 7 1 17 24 0 80 50 68 46 65 10 0 85 +81 1 32 151 30 49 0 0 26 54 260 82 3 7
0 6 5 0 82 3 260 6 4 0 81 1 48 147 30 46 0 0 0 60 261 82 3 67 6 1 0 82 3 261 6 0
 0 82 3 61 6 2 0 82 3 55 6 6 0 82 3 33 6 3 0 19 17 133 0 1 0 9 5 S0 74 4 CI16 in
dex_map_offset0 0 1 dCCZ20 15 5 0 0 137 199 13 2 220 0 0 0 0 0 0 0 0 0 0 0 0 0 0
 0 80 1 12 174 262 8040 0 0 0 0 3 5 0 0 0 TTTFFFFFFFFFFF2 83 3 14 .6156862745098
04 .811764705882353 .929411764705882 79 17 262 SDL/TYSA_COLOUR_21 0 
