**ABCDEFGHIJKLMNOPQRSTUVWXYZabcdefghijklmnopqrstuvwxyz**************************
**PARASOLID !"#$%&'()*+,-./:;<=>?@[\]^_`{|}~0123456789**************************
**PART1;
MC=unknown;
MC_MODEL=unknown;
MC_ID=unknown;
OS=unknown;
OS_RELEASE=unknown;
FRU=Parasolid 30.1.168;
APPL=Onshape;
SITE=unknown;
USER=unknown;
FORMAT=text;
GUISE=transmit;
KEY=BTGapi::writeModels_.xmt;
FILE=BTGapi::writeModels_.xmt;
DATE=2018-03-14T14:25:59 (UTC);
**PART2;
SCH=SCH_3001168_30100;
USFLD_SIZE=0;
**PART3;
**END_OF_HEADER*****************************************************************
T51 : TRANSMIT FILE created by modeller version 300116823 SCH_3001168_30100_1300
6214 0 12 34 CCCCCCI4 mesh1006 0 I8 polyline1008 0 CCCCCCCDI5 owner1040 0 CCCCCC
I13 boundary_mesh1006 0 I17 boundary_polyline1008 0 CCCA16 index_map_offset0 0 1
 dA9 index_map82 0 A17 node_id_index_map82 0 A20 schema_embedding_map82 0 A5 chi
ld12 0 A14 lowest_node_id0 0 1 dA16 mesh_offset_data206 0 Z1 3847 2 3 0 0 0 0 0
 0 1e3 1e-8 0 4 5 1 0 1 1 6 7 8 9 0 0 10 11 12 0 0 0 0 0 0 0 81 255 1 2 3801 13
 1 14 0 0 0 15 70 11 CI9 list_type0 0 1 uI10 notransmit0 0 1 lCCCDCCDI12 finger_
index0 0 1 dI12 finger_block1012 0 CZ3 0 4 T1 0 0 5 20 1 16 16 13 255 6 585 0 1
 0 17 0 0 18 0 51 255 7 3751 0 19 20 0 0 +.0355 .034721825406948 .02 0 0 1 .0015
 1 0 0 31 255 8 3708 0 11 21 0 0 -.0355 .034721825406948 .02 0 0 1 1 0 0 .0015 2
9 255 9 3683 0 12 22 0 .034 .034721825406948 .02 19 8 CCCCCCCA5 owner12 0 Z10 18
8 0 1 18 0 23 V0 16 255 11 3701 24 ?25 0 26 8 0 0 1 18 255 12 3680 27 28 0 29 9
 ?1 81 1 27 3769 30 12 0 0 31 32 33 17 255 28 0 34 35 36 12 37 38 0 39 +18 29 36
76 32 40 12 41 22 ?1 81 1 32 3770 30 29 0 0 27 42 43 17 40 0 44 45 46 29 47 26 0
 36 +18 41 3667 48 25 29 49 50 ?1 29 22 3679 0 29 50 9 .034 .034721825406948 0 2
9 50 3670 0 41 51 22 .0365606601717798 .0357824855787278 .02 29 51 3666 0 49 52
 50 .0365606601717798 .0357824855787278 0 18 49 3663 31 47 41 53 51 ?1 29 52 365
7 0 53 54 51 -.0365606601717798 .0357824855787278 .02 18 53 3654 42 55 49 56 52
 ?1 29 54 3653 0 56 57 52 -.0365606601717798 .0357824855787278 0 18 56 3650 58 5
9 53 60 54 ?1 29 57 3644 0 60 61 54 -.034 .034721825406948 .02 18 60 3641 62 63
 56 64 57 ?1 29 61 3640 0 64 65 57 -.034 .034721825406948 0 18 64 3637 66 67 60
 68 61 ?1 29 65 3532 0 68 69 61 -.0295606601717798 .0427824855787278 0 18 68 352
9 70 71 64 72 65 ?1 29 69 3518 0 72 73 65 -.0295606601717798 .0427824855787278 .
016 18 72 3515 74 75 68 76 69 ?1 29 73 3509 0 76 77 69 -.0285 .029 .016 18 76 35
06 78 79 72 80 73 ?1 29 77 3505 0 80 81 73 -.0285 .029 0 18 80 3502 82 83 76 84
 77 ?1 29 81 3491 0 84 85 77 -.03 .041721825406948 0 18 84 3488 86 87 80 88 81 ?
1 29 85 3487 0 88 89 81 -.03 .0305 0 18 88 3484 90 91 84 92 85 ?1 29 89 3483 0 9
2 93 85 -.03 .041721825406948 .016 18 92 3480 94 95 88 96 89 ?1 29 93 3479 0 96
 97 89 -.03 .0305 .016 18 96 3476 98 99 92 100 93 ?1 29 97 3265 0 100 101 93 .02
85 .029 0 18 100 3262 102 103 96 104 97 ?1 29 101 3251 0 104 105 97 .0285 .029 .
016 18 104 3248 106 107 100 108 101 ?1 29 105 3242 0 108 109 101 .02956066017177
98 .0427824855787278 0 18 108 3239 110 111 104 112 105 ?1 29 109 3238 0 112 113
 105 .0295606601717798 .0427824855787278 .016 18 112 3235 114 115 108 116 109 ?1
 29 113 3224 0 116 117 109 .03 .041721825406948 0 18 116 3221 118 119 112 120 11
3 ?1 29 117 3220 0 120 121 113 .03 .0305 0 18 120 3217 122 123 116 124 117 ?1 29
 121 3216 0 124 125 117 .03 .041721825406948 .016 18 124 3213 126 127 120 128 12
1 ?1 29 125 3212 0 128 129 121 .03 .0305 .016 18 128 3209 130 131 124 132 125 ?1
 29 129 3203 0 132 133 125 .032 .0235 .02 18 132 3200 134 135 128 136 129 ?1 29
 133 3199 0 136 137 129 .032 .0235 0 18 136 3196 138 139 132 140 133 ?1 29 137 3
190 0 140 141 133 -.032 .0235 .02 18 140 3187 142 143 136 144 137 ?1 29 141 3186
 0 144 145 137 -.032 .0235 0 18 144 3183 146 147 140 148 141 ?1 29 145 3172 0 14
8 149 141 .0305 .025 .02 18 148 3169 150 151 144 152 145 ?1 29 149 3168 0 152 15
3 145 -.0305 .025 .02 18 152 3165 154 155 148 156 149 ?1 29 153 3164 0 156 157 1
49 .0305 .025 0 18 156 3161 158 159 152 160 153 ?1 29 157 3160 0 160 161 153 -.0
305 .025 0 18 160 3157 162 163 156 164 157 ?1 29 161 467 0 165 166 157 .02334314
57505076 .049 0 18 165 372 167 168 169 170 161 ?1 29 166 468 0 170 171 161 -.023
3431457505076 .049 0 18 170 376 172 173 165 174 166 ?1 29 171 471 0 174 175 166
 .056643028458098 .021356971541902 0 18 174 388 176 177 170 178 171 ?1 29 175 47
2 0 178 179 171 .0538146013333518 .01852854441715585 0 18 178 392 180 181 174 18
2 175 ?1 29 179 474 0 182 183 175 .034 -75928101547136e-31 0 18 182 400 184 185
 178 186 179 ?1 29 183 475 0 186 187 179 .032 -823993651088983e-32 0 18 186 404
 188 189 182 190 183 ?1 29 187 478 0 190 191 183 -.032 0 0 18 190 416 192 193 18
6 194 187 ?1 29 191 479 0 194 195 187 -.034 -693889390390723e-32 0 18 194 420 19
6 197 190 198 191 ?1 29 195 481 0 198 199 191 -.0538146013333518 .01852854441715
58 0 18 198 428 200 201 194 202 195 ?1 29 199 482 0 202 203 195 -.05664302845809
8 .021356971541902 0 18 202 432 204 205 198 206 199 ?1 29 203 483 0 206 207 199
 -.025 .053 0 18 206 436 208 209 202 210 203 ?1 29 207 484 0 210 211 203 .025 .0
53 0 18 210 440 212 213 206 214 207 ?1 29 211 154 0 164 215 207 .056643028458098
 .021356971541902 .02 18 164 152 216 217 160 218 211 ?1 29 215 149 0 218 219 211
 .0538146013333518 .01852854441715585 .02 18 218 147 220 221 164 222 215 ?1 29 2
19 139 0 222 223 215 .034 -75928101547136e-31 .02 18 222 137 224 225 218 226 219
 ?1 29 223 134 0 226 227 219 .032 -823993651088983e-32 .02 18 226 132 228 229 22
2 230 223 ?1 29 227 119 0 230 231 223 -.032 0 .02 18 230 117 232 233 226 234 227
 ?1 29 231 114 0 234 235 227 -.034 -693889390390723e-32 .02 18 234 112 236 237 2
30 238 231 ?1 29 235 104 0 238 239 231 -.0538146013333518 .0185285444171558 .02
 18 238 102 240 241 234 242 235 ?1 29 239 99 0 242 243 235 -.056643028458098 .02
1356971541902 .02 18 242 97 244 245 238 246 239 ?1 29 243 94 0 246 247 239 -.025
 .053 .02 18 246 92 248 249 242 169 243 ?1 29 247 89 0 169 250 243 .025 .053 .02
 18 169 87 251 252 246 165 247 ?1 29 250 2432 0 214 253 247 -.0211832159566199 .
029 .016 18 214 2340 254 255 210 256 250 ?1 29 253 2433 0 256 257 250 -.01881678
40433801 .029 .016 18 256 2336 258 259 214 260 253 ?1 29 257 2434 0 260 261 253
 .0188167840433801 .029 .016 18 260 2341 262 263 256 264 257 ?1 29 261 2435 0 26
4 265 257 .0211832159566199 .029 .016 18 264 2337 266 267 260 268 261 ?1 29 265
 2444 0 268 269 261 -.0233431457505076 .049 .016 18 268 2354 270 271 264 272 265
 ?1 29 269 2445 0 272 0 265 .0233431457505076 .049 .016 18 272 2350 273 274 268
 0 269 ?1 81 1 273 2490 30 272 0 0 270 275 276 17 274 0 277 278 271 272 279 280
 0 281 +15 255 277 2399 0 282 283 0 17 278 0 277 127 274 112 281 284 0 285 +17 2
71 0 277 274 75 268 286 287 0 279 +17 279 0 288 289 290 268 274 280 0 291 -16 28
0 2321 292 ?274 287 284 293 0 0 1 17 281 0 294 168 115 272 278 284 0 290 -15 294
 2149 0 295 296 0 17 168 0 294 295 281 165 290 297 0 298 +17 115 0 294 281 295 1
12 299 300 0 278 +16 284 2326 301 ?278 280 302 303 0 0 1 17 290 0 288 279 298 27
2 168 297 0 0 -15 288 2159 0 279 304 0 17 298 0 288 290 289 165 305 306 0 307 +1
6 297 487 308 ?168 309 310 311 0 0 1 81 1 308 2496 30 297 0 0 275 292 312 16 309
 488 275 ?289 313 297 314 0 0 1 16 310 504 315 ?213 297 316 317 0 0 1 30 255 311
 567 0 297 318 314 0 +.0233431457505076 .049 .02 0 0 -1 30 318 445 0 319 320 311
 0 +.03 .0356715728752538 0 0 1 0 30 314 568 0 309 311 321 0 +-.0233431457505076
 .049 .02 0 0 -1 30 321 571 0 322 314 323 0 +.056643028458098 .021356971541902 .
02 0 0 -1 16 322 491 324 ?177 325 326 321 0 0 1 30 323 572 0 325 321 327 0 +.053
8146013333518 .01852854441715585 .02 0 0 -1 16 325 492 328 ?329 330 322 323 0 0
 1 30 327 574 0 330 323 331 0 +.034 -75928101547136e-31 .02 0 0 -1 16 330 494 33
2 ?333 334 325 327 0 0 1 30 331 575 0 334 327 335 0 +.032 -823993651088983e-32 .
02 0 0 -1 16 334 495 336 ?189 337 330 331 0 0 1 30 335 578 0 337 331 338 0 +-.03
2 0 .02 0 0 -1 16 337 498 339 ?340 341 334 335 0 0 1 30 338 579 0 341 335 342 0
 +-.034 -693889390390723e-32 .02 0 0 -1 16 341 499 343 ?197 344 337 338 0 0 1 30
 342 581 0 344 338 345 0 +-.0538146013333518 .0185285444171558 .02 0 0 -1 16 344
 501 346 ?347 348 341 342 0 0 1 30 345 582 0 348 342 349 0 +-.056643028458098 .0
21356971541902 .02 0 0 -1 16 348 502 350 ?351 316 344 345 0 0 1 30 349 583 0 316
 345 317 0 +-.025 .053 .02 0 0 -1 16 316 503 352 ?209 310 348 349 0 0 1 30 317 5
84 0 310 349 353 0 +.025 .053 .02 0 0 -1 31 353 2939 0 354 317 355 0 -.034 .015
 .01 -1 0 0 0 0 1 .00225 16 354 3065 356 ?357 358 359 353 0 0 1 31 355 2946 0 36
0 353 361 0 -.034 .005 .01 -1 0 0 0 0 1 .00225 16 360 3016 362 ?363 364 365 355
 0 0 1 30 361 3175 0 313 355 366 0 -.0305 .025 .02 0 0 -1 16 313 3173 367 ?151 3
68 309 361 0 0 1 30 366 3180 0 368 361 369 0 +-.0305 .025 0 0 0 -1 16 368 3178 3
70 ?371 372 313 366 0 0 1 30 369 3193 0 372 366 373 0 --.032 .0235 .02 0 0 -1 16
 372 3191 374 ?143 375 368 369 0 0 1 30 373 3206 0 375 369 376 0 +.032 .0235 .02
 0 0 -1 16 375 3204 377 ?378 379 372 373 0 0 1 30 376 3227 0 379 373 380 0 -.03
 .0305 .02 0 0 -1 16 379 3225 381 ?131 382 375 376 0 0 1 30 380 3232 0 382 376 3
83 0 +.03 .041721825406948 .02 0 0 -1 16 382 3230 384 ?385 300 379 380 0 0 1 30
 383 3245 0 300 380 386 0 -.0295606601717798 .0427824855787278 .02 0 0 -1 16 300
 3243 387 ?115 388 382 383 0 0 1 31 386 3254 0 388 383 389 0 -.0285 .0305 .016 0
 0 1 1 0 0 .0015 16 388 3252 390 ?107 391 300 386 0 0 1 31 389 3259 0 391 386 39
2 0 -.0285 .041721825406948 .016 0 0 1 1 0 0 .0015 16 391 3257 393 ?127 394 388
 389 0 0 1 30 392 3268 0 394 389 395 0 +.0285 .029 .02 0 0 -1 16 394 3266 396 ?3
97 398 391 392 0 0 1 31 395 3295 0 398 392 399 0 +-.0305 .0235 0 0 0 1 1 0 0 .00
15 16 398 3271 400 ?147 401 394 395 0 0 1 31 399 3296 0 401 395 402 0 --.0305 .0
235 .02 0 0 1 1 0 0 .0015 16 401 3275 403 ?155 404 398 399 0 0 1 31 402 3297 0 4
04 399 405 0 +.0305 .0235 0 0 0 1 1 0 0 .0015 16 404 3279 406 ?159 407 401 402 0
 0 1 31 405 3298 0 407 402 408 0 -.0305 .0235 .02 0 0 1 1 0 0 .0015 16 407 3283
 409 ?135 410 404 405 0 0 1 31 408 3299 0 410 405 411 0 +.0285 .041721825406948
 0 0 0 1 1 0 0 .0015 16 410 3287 412 ?111 413 407 408 0 0 1 31 411 3300 0 413 40
8 414 0 +.0285 .0305 0 0 0 1 1 0 0 .0015 16 413 3291 415 ?123 416 410 411 0 0 1
 30 414 3494 0 416 411 417 0 --.03 .041721825406948 .016 0 0 -1 16 416 3492 418
 ?95 419 413 414 0 0 1 30 417 3499 0 419 414 420 0 +-.03 .0305 0 0 0 -1 16 419 3
497 421 ?422 423 416 417 0 0 1 30 420 3512 0 423 417 424 0 --.0285 .029 .016 0 0
 -1 16 423 3510 425 ?79 426 419 420 0 0 1 31 424 3521 0 426 420 427 0 --.0285 .0
41721825406948 .016 0 0 1 1 0 0 .0015 16 426 3519 428 ?75 429 423 424 0 0 1 31 4
27 3526 0 429 424 430 0 --.0285 .0305 .016 0 0 1 1 0 0 .0015 16 429 3524 431 ?99
 432 426 427 0 0 1 30 430 3535 0 432 427 433 0 +-.0295606601717798 .042782485578
7278 0 0 0 -1 16 432 3533 434 ?435 436 429 430 0 0 1 31 433 3546 0 436 430 437 0
 +-.0285 .0305 0 0 0 1 1 0 0 .0015 16 436 3538 438 ?83 439 432 433 0 0 1 31 437
 3547 0 439 433 440 0 +-.0285 .041721825406948 0 0 0 1 1 0 0 .0015 16 439 3542 4
41 ?87 442 436 437 0 0 1 30 440 3647 0 442 437 443 0 +-.034 .034721825406948 0 0
 0 -1 16 442 3645 444 ?445 446 439 440 0 0 1 30 443 3660 0 446 440 447 0 --.0365
6066017177985 .0357824855787278 .02 0 0 -1 16 446 3658 448 ?55 449 442 443 0 0 1
 30 447 3673 0 449 443 450 0 +.0365606601717798 .0357824855787278 0 0 0 -1 16 44
9 3671 451 ?452 38 446 447 0 0 1 30 450 3686 0 38 447 453 0 -.034 .0347218254069
48 .02 0 0 -1 16 38 3684 454 ?28 455 449 450 0 0 1 31 453 3705 0 455 450 456 0 +
-.0355 .034721825406948 0 0 0 1 1 0 0 .0015 16 455 3689 457 ?59 458 38 453 0 0 1
 31 456 3706 0 458 453 21 0 --.0355 .034721825406948 .02 0 0 1 1 0 0 .0015 16 45
8 3693 459 ?63 26 455 456 0 0 1 31 21 3707 0 26 456 8 0 +.0355 .034721825406948
 0 0 0 1 1 0 0 .0015 16 26 3697 460 ?40 11 458 21 0 0 1 81 1 460 3778 30 26 0 0
 24 448 461 80 255 1 30 462 463 9000 0 0 0 0 3 6 0 0 0 FFTFTFTTFFFFFF1 81 1 24 3
777 30 11 0 0 454 460 464 81 1 448 3779 30 446 0 0 460 444 465 82 255 3 461 75 3
 1 81 1 444 3780 30 442 0 0 448 459 466 82 3 465 75 4 1 81 1 459 3781 30 458 0 0
 444 457 467 82 3 466 75 5 1 81 1 457 3782 30 455 0 0 459 468 469 82 3 467 75 6
 1 81 1 468 3783 30 470 0 0 457 471 472 82 3 469 75 7 1 16 470 3651 468 ?201 473
 474 475 0 0 1 81 1 471 3784 30 476 0 0 468 477 478 82 3 472 75 8 1 16 476 3655
 471 ?241 479 480 481 0 0 1 81 1 477 3785 30 482 0 0 471 483 484 82 3 478 75 9 1
 16 482 3664 477 ?181 485 486 487 0 0 1 81 1 483 3786 30 488 0 0 477 489 490 82
 3 484 75 10 1 16 488 3668 483 ?221 326 491 492 0 0 1 81 1 489 3787 30 486 0 0 4
83 493 494 82 3 490 75 11 1 16 486 316 489 ?36 482 495 496 0 0 1 81 1 493 3788 3
0 491 0 0 489 497 498 82 3 494 75 12 1 16 491 51 493 ?39 488 499 500 0 0 1 81 1
 497 3789 30 473 0 0 493 501 502 82 3 498 75 13 1 16 473 340 497 ?503 504 470 50
5 0 0 1 81 1 501 3790 30 479 0 0 497 506 507 82 3 502 75 14 1 16 479 27 501 ?508
 509 476 510 0 0 1 81 1 506 3791 30 19 0 511 501 512 513 82 3 507 75 15 1 14 255
 19 3739 511 ?0 514 515 6 7 -0 0 0 514 23 81 1 511 3847 516 19 506 0 517 0 518 8
1 1 512 3792 30 514 0 517 506 519 520 82 3 513 75 0 2 14 514 3718 517 ?19 521 52
2 6 20 -0 0 19 521 23 81 1 517 3846 516 514 512 0 523 511 524 81 1 519 3793 30 5
25 0 526 512 527 528 82 3 520 75 1 2 14 525 520 526 ?529 530 531 6 532 -0 0 529
 530 23 81 1 526 3820 516 525 519 0 533 534 535 81 1 527 3794 30 536 0 537 519 5
38 539 82 3 528 75 2 2 14 536 536 537 ?540 541 542 6 543 +0 0 540 541 23 81 1 53
7 3812 516 536 527 0 544 545 546 81 1 538 3795 30 530 0 533 527 547 548 82 3 539
 75 3 2 14 530 522 533 ?525 549 550 6 551 -0 0 525 549 23 81 1 533 3819 516 530
 538 0 552 526 553 81 1 547 3796 30 540 0 545 538 554 555 82 3 548 75 4 2 14 540
 534 545 ?556 536 557 6 558 +0 0 556 536 23 81 1 545 3813 516 540 547 0 537 559
 560 81 1 554 3797 30 561 0 562 547 563 564 82 3 555 75 5 2 14 561 1 562 ?565 52
9 566 6 567 +0 0 565 529 23 81 1 562 3822 516 561 554 0 534 568 569 81 1 563 379
8 30 565 0 568 554 0 570 82 3 564 75 6 2 14 565 259 568 ?571 561 44 6 572 -0 0 5
71 561 23 81 1 568 3823 516 565 563 0 562 573 574 82 3 570 75 7 2 80 1 516 0 575
 8001 0 0 0 0 3 5 0 0 0 FFFFTFTFFFFFFF2 81 1 573 3824 516 571 576 0 568 577 578
 83 255 3 574 .615686274509804 .811764705882353 .929411764705882 14 571 1020 573
 ?579 565 580 6 581 +0 0 579 565 23 81 1 576 1049 30 571 0 573 582 583 584 81 1
 577 3825 516 579 582 0 573 585 586 83 3 578 .615686274509804 .811764705882353 .
929411764705882 14 579 993 577 ?587 571 588 6 589 +0 0 587 571 23 81 1 582 1048
 30 579 0 577 590 576 591 81 1 585 3826 516 587 592 0 577 593 594 83 3 586 .6156
86274509804 .811764705882353 .929411764705882 14 587 1287 585 ?595 579 596 6 597
 +0 0 595 579 23 81 1 592 1342 30 587 0 585 598 599 600 81 1 593 3827 516 595 59
9 0 585 601 602 83 3 594 .615686274509804 .811764705882353 .929411764705882 14 5
95 1314 593 ?603 587 604 6 605 +0 0 603 587 23 81 1 599 1343 30 595 0 593 592 60
6 607 81 1 601 3828 516 603 608 0 593 609 610 83 3 602 .615686274509804 .8117647
05882353 .929411764705882 14 603 1620 601 ?611 595 612 6 613 +0 0 611 595 23 81
 1 608 1649 30 603 0 601 614 615 616 81 1 609 3829 516 611 614 0 601 617 618 83
 3 610 .615686274509804 .811764705882353 .929411764705882 14 611 1593 609 ?619 6
03 620 6 621 +0 0 619 603 23 81 1 614 1648 30 611 0 609 622 608 623 81 1 617 383
0 516 619 624 0 609 625 626 83 3 618 .615686274509804 .811764705882353 .92941176
4705882 14 619 1937 617 ?627 611 628 6 629 +0 0 627 611 23 81 1 624 1966 30 619
 0 617 630 631 632 81 1 625 3831 516 627 630 0 617 633 634 83 3 626 .61568627450
9804 .811764705882353 .929411764705882 14 627 1910 625 ?283 619 635 6 636 +0 0 2
83 619 23 81 1 630 1965 30 627 0 625 637 624 638 81 1 633 3832 516 283 639 0 625
 640 641 83 3 634 .615686274509804 .811764705882353 .929411764705882 14 283 2396
 633 ?642 627 643 6 644 -0 0 642 627 23 81 1 639 3634 30 283 0 633 645 48 646 81
 1 640 3833 516 642 647 0 633 648 649 83 3 641 .615686274509804 .811764705882353
 .929411764705882 14 642 2372 640 ?650 283 651 6 652 -650 650 650 283 23 81 1 64
7 2517 30 642 0 640 653 254 654 81 1 648 3834 516 650 653 0 640 655 656 83 3 649
 .615686274509804 .811764705882353 .929411764705882 14 650 2368 648 ?657 642 658
 6 652 -642 642 657 642 23 81 1 653 2516 30 650 0 648 659 647 660 81 1 655 3835
 516 657 661 0 648 662 663 83 3 656 .615686274509804 .811764705882353 .929411764
705882 14 657 2681 655 ?664 650 665 6 666 +0 0 664 650 23 81 1 661 2697 30 657 0
 655 667 668 669 81 1 662 3836 516 664 670 0 655 671 672 83 3 663 .6156862745098
04 .811764705882353 .929411764705882 14 664 3097 662 ?673 657 674 6 675 +676 676
 673 657 23 81 1 670 3146 30 664 0 662 677 362 678 81 1 671 3837 516 673 679 0 6
62 680 681 83 3 672 .615686274509804 .811764705882353 .929411764705882 14 673 30
48 671 ?676 664 682 6 683 +684 684 676 664 23 81 1 679 3144 30 673 0 671 685 677
 686 81 1 680 3838 516 676 677 0 671 687 688 83 3 681 .615686274509804 .81176470
5882353 .929411764705882 14 676 3073 680 ?684 673 689 6 675 +664 664 684 673 23
 81 1 677 3145 30 676 0 680 679 670 690 81 1 687 3839 516 684 685 0 680 691 692
 83 3 688 .615686274509804 .811764705882353 .929411764705882 14 684 3024 687 ?69
3 676 694 6 683 +673 673 693 676 23 81 1 685 3143 30 684 0 687 695 679 696 81 1
 691 3840 516 693 697 0 687 698 699 83 3 692 .615686274509804 .811764705882353 .
929411764705882 14 693 3316 691 ?700 684 701 6 702 -0 0 700 684 23 81 1 697 3461
 30 693 0 691 301 703 704 81 1 698 3841 516 700 703 0 691 705 706 83 3 699 .6156
86274509804 .811764705882353 .929411764705882 14 700 3337 698 ?707 693 708 6 709
 -0 0 707 693 23 81 1 703 3462 30 700 0 698 697 710 711 81 1 705 3842 516 707 71
2 0 698 713 714 83 3 706 .615686274509804 .811764705882353 .929411764705882 14 7
07 3358 705 ?715 700 716 6 717 -0 0 715 700 23 81 1 712 3464 30 707 0 705 710 71
8 719 81 1 713 3843 516 715 710 0 705 720 721 83 3 714 .615686274509804 .8117647
05882353 .929411764705882 14 715 3379 713 ?722 707 723 6 724 -0 0 722 707 23 81
 1 710 3463 30 715 0 713 703 712 725 81 1 720 3844 516 722 726 0 713 523 727 83
 3 721 .615686274509804 .811764705882353 .929411764705882 14 722 3557 720 ?521 7
15 728 6 729 -0 0 521 715 23 81 1 726 3628 30 722 0 720 730 731 732 81 1 523 384
5 516 521 731 0 720 517 733 83 3 727 .615686274509804 .811764705882353 .92941176
4705882 14 521 3578 523 ?514 722 734 6 735 -0 0 514 722 23 81 1 731 3629 30 521
 0 523 726 736 737 83 3 733 .615686274509804 .811764705882353 .929411764705882 8
1 1 736 3630 30 17 0 738 731 739 740 82 3 737 74 1 2 14 17 514 738 ?741 0 742 6
 743 -0 0 741 0 23 81 1 738 3802 516 17 736 0 0 744 745 81 1 739 3631 30 741 0 7
44 736 645 746 82 3 740 74 2 2 14 741 512 744 ?304 17 747 6 748 -0 0 304 17 23 8
1 1 744 3803 516 741 739 0 738 749 750 81 1 645 3633 30 751 0 752 739 639 753 82
 3 746 74 3 2 14 751 516 752 ?754 755 756 6 757 -0 0 754 755 23 81 1 752 3807 51
6 751 645 0 758 759 760 82 3 753 74 5 2 81 1 758 3806 516 755 761 0 762 752 763
 81 1 759 3808 516 754 583 0 752 764 765 83 3 760 .615686274509804 .811764705882
353 .929411764705882 14 754 544 759 ?766 751 767 6 768 +0 0 766 751 23 81 1 583
 1050 30 754 0 759 576 769 770 81 1 764 3809 516 766 615 0 759 771 772 83 3 765
 .615686274509804 .811764705882353 .929411764705882 14 766 542 764 ?773 754 774
 6 775 +0 0 773 754 23 81 1 615 1650 30 766 0 764 608 776 777 81 1 771 3810 516
 773 606 0 764 544 778 83 3 772 .615686274509804 .811764705882353 .9294117647058
82 14 773 540 771 ?541 766 779 6 780 -0 0 541 766 23 81 1 606 1344 30 773 0 771
 599 781 782 81 1 544 3811 516 541 783 0 771 537 784 83 3 778 .615686274509804 .
811764705882353 .929411764705882 14 541 538 544 ?536 773 785 6 786 -0 0 536 773
 23 81 1 783 755 30 541 0 544 787 788 789 83 3 784 .615686274509804 .81176470588
2353 .929411764705882 81 1 787 743 30 509 0 0 790 783 791 81 1 788 757 30 529 0
 534 783 792 793 82 3 789 6 7 2 14 529 518 534 ?561 525 794 6 795 -0 0 561 525 2
3 81 1 534 3821 516 529 788 0 526 562 796 81 1 792 760 30 549 0 552 788 797 798
 82 3 793 6 9 2 14 549 524 552 ?530 799 800 6 801 -0 0 530 799 23 81 1 552 3818
 516 549 792 0 802 533 803 81 1 797 767 30 556 0 559 792 804 805 82 3 798 6 12 2
 14 556 532 559 ?806 540 807 6 808 -0 0 806 540 23 81 1 559 3814 516 556 797 0 5
45 809 810 81 1 804 1044 30 811 0 0 797 812 813 82 3 805 6 19 2 16 811 977 804 ?
814 815 816 817 0 0 1 81 1 812 1045 30 816 0 0 804 818 819 82 3 813 17 0 1 16 81
6 972 812 ?820 811 821 822 0 0 1 81 1 818 1046 30 821 0 0 812 590 823 82 3 819 1
7 1 1 16 821 1004 818 ?824 816 825 826 0 0 1 81 1 590 1047 30 825 0 0 818 582 82
7 82 3 823 17 2 1 16 825 999 590 ?828 821 829 830 0 0 1 82 3 827 17 3 1 17 828 0
 580 828 828 0 831 825 0 0 +16 829 1271 769 ?832 825 833 834 0 0 1 31 830 1036 0
 825 817 826 0 +.0543449314192417 .0236550685807583 .01 .707106781186547 .707106
781186548 0 -.707106781186548 .707106781186547 0 .0017 31 817 1037 0 811 822 830
 0 +.02535355339059325 .0469895923599144 .01 .707106781186547 .707106781186548 0
 -.707106781186548 .707106781186547 0 .0017 31 826 1035 0 821 830 835 0 +.051516
5042944955 .0208266414560121 .01 .707106781186547 .707106781186548 0 -.707106781
186548 .707106781186547 0 .0017 30 835 8 0 836 826 837 0 +.040821514229049 .0371
78485770951 .02 .707106781186548 -.707106781186547 0 16 836 7 838 ?839 840 319 8
35 0 0 1 30 837 12 0 840 835 841 0 +-3469446951953615e-33 .053 .02 1 0 0 16 840
 11 842 ?843 844 836 837 0 0 1 30 841 16 0 844 837 845 0 +-.040821514229049 .037
178485770951 .02 -.707106781186548 -.707106781186548 0 16 844 15 846 ?245 480 84
0 841 0 0 1 30 845 20 0 480 841 481 0 +-.0552288148957249 .0199427579795289 .02
 .707106781186548 -.707106781186547 0 16 480 19 847 ?848 476 844 845 0 0 1 30 48
1 24 0 476 845 510 0 +-.0439073006666759 .02843584508383175 .02 -.70710678118654
7 -.707106781186548 0 30 510 28 0 479 481 849 0 +-.034 .0191715728752538 .02 0 1
 0 30 849 32 0 509 510 850 0 +-.033 -520417042793042e-32 .02 1 1734723475976805e
-30 0 16 509 31 787 ?233 851 479 849 0 0 1 30 850 36 0 851 849 852 0 +-.032 .012
5 .02 0 1 0 16 851 35 853 ?854 855 509 850 0 0 1 30 852 40 0 855 850 856 0 +0 .0
25 .02 1 216840434497101e-30 0 16 855 3166 857 ?858 859 851 852 0 0 1 30 856 44
 0 859 852 860 0 +.032 .0125 .02 0 1 0 16 859 43 861 ?862 499 855 856 0 0 1 30 8
60 48 0 499 856 500 0 +.033 -783773951454307e-32 .02 1 2449293598294705e-31 0 16
 499 47 863 ?225 491 859 860 0 0 1 30 500 52 0 491 860 492 0 +.034 .019171572875
2538 .02 0 1 0 30 492 56 0 488 500 864 0 +.0439073006666759 .0284358450838317 .0
2 .707106781186548 -.707106781186547 0 30 864 60 0 326 492 865 0 +.0552288148957
249 .0199427579795289 .02 .707106781186551 .707106781186544 0 16 326 59 866 ?217
 322 488 864 0 0 1 30 865 464 0 815 864 867 0 +.040821514229049 .037178485770951
 0 .707106781186548 -.707106781186547 0 16 815 360 868 ?869 870 811 865 0 0 1 30
 867 463 0 870 865 871 0 +-3469446951953615e-33 .053 0 1 0 0 16 870 356 872 ?873
 874 815 867 0 0 1 30 871 462 0 874 867 875 0 +-.040821514229049 .03717848577095
1 0 -.707106781186548 -.707106781186548 0 16 874 352 876 ?205 474 870 871 0 0 1
 30 875 461 0 474 871 475 0 +-.0552288148957249 .0199427579795289 0 .70710678118
6548 -.707106781186547 0 16 474 348 877 ?878 470 874 875 0 0 1 30 475 460 0 470
 875 505 0 +-.0439073006666759 .02843584508383175 0 -.707106781186547 -.70710678
1186548 0 30 505 459 0 473 475 879 0 +-.034 .0191715728752538 0 0 1 0 30 879 458
 0 504 505 880 0 +-.033 -520417042793042e-32 0 1 1734723475976805e-30 0 16 504 3
36 790 ?193 881 473 879 0 0 1 30 880 457 0 881 879 882 0 +-.032 .0125 0 0 1 0 16
 881 332 883 ?884 885 504 880 0 0 1 30 882 456 0 885 880 886 0 +0 .025 0 1 21684
0434497101e-30 0 16 885 3158 887 ?888 889 881 882 0 0 1 30 886 455 0 889 882 890
 0 +.032 .0125 0 0 1 0 16 889 324 891 ?892 495 885 886 0 0 1 30 890 454 0 495 88
6 496 0 +.033 -783773951454307e-32 0 1 2449293598294705e-31 0 16 495 320 893 ?18
5 486 889 890 0 0 1 30 496 453 0 486 890 487 0 +.034 .0191715728752538 0 0 1 0 3
0 487 452 0 482 496 894 0 +.0439073006666759 .0284358450838317 0 .70710678118654
8 -.707106781186547 0 30 894 451 0 485 487 895 0 +.0552288148957249 .01994275797
95289 0 .707106781186551 .707106781186544 0 16 485 308 896 ?897 898 482 894 0 0
 1 30 895 450 0 898 894 899 0 +0 .029 0 -1 -1156482317317872e-31 0 16 898 3263 7
30 ?900 901 485 895 0 0 1 30 899 449 0 901 895 902 0 +-.03 .0356715728752538 0 0
 1 0 16 901 3485 903 ?904 905 898 899 0 0 1 30 902 448 0 905 899 906 0 +-.026671
5728752538 .0456715728752538 0 .707106781186547 .707106781186548 0 16 905 3530 9
07 ?173 306 901 902 0 0 1 30 906 447 0 306 902 320 0 +-3469446951953615e-33 .049
 0 1 0 0 16 306 292 908 ?298 909 905 906 0 0 1 30 320 446 0 909 906 318 0 +.0266
715728752538 .0456715728752538 0 .707106781186547 -.707106781186548 0 16 909 288
 910 ?295 319 306 320 0 0 1 81 1 910 3455 30 909 0 0 911 891 912 17 295 0 294 11
5 168 108 307 909 0 299 +16 319 3218 913 ?914 836 909 318 0 0 1 81 1 913 3441 30
 319 0 0 377 887 915 17 914 0 916 111 123 116 917 319 0 0 +15 916 283 0 918 565
 0 17 111 0 916 307 914 108 119 410 0 295 +17 123 0 916 914 918 120 103 413 0 91
7 +17 917 0 919 131 385 120 914 319 0 920 -15 919 505 0 921 755 0 17 131 0 919 9
21 917 128 920 379 0 922 +17 385 0 919 917 921 116 923 382 0 914 +17 920 0 723 1
03 924 120 131 379 0 0 -15 723 3380 0 924 715 0 17 103 0 723 925 920 100 123 413
 0 397 -17 924 0 723 920 925 128 107 388 0 0 -17 925 0 723 924 103 104 397 394 0
 0 -17 107 0 277 267 922 104 924 388 0 926 +17 267 0 277 927 107 264 926 928 0 9
29 +17 922 0 277 107 127 128 921 302 0 924 -17 926 0 756 397 930 104 267 928 0 9
25 -15 756 2129 0 900 751 0 17 397 0 756 900 926 100 925 394 0 918 +17 930 0 756
 926 931 264 932 933 0 934 +16 928 3249 911 ?267 302 935 936 937 935 1 81 1 911
 3454 30 928 0 0 938 910 939 16 302 3210 938 ?921 284 928 940 0 0 1 16 935 2295
 941 ?927 928 942 936 928 942 1 30 936 2431 0 928 943 940 0 +0 .029 .016 -1 -115
6482317317872e-31 0 16 937 2306 944 ?282 945 946 936 945 928 1 81 1 944 3626 30
 937 0 0 947 730 948 17 282 0 277 99 949 76 950 937 0 951 +16 945 2303 952 ?949
 942 937 936 942 937 1 16 946 2665 953 ?954 937 955 943 0 0 1 81 1 953 2695 30 9
46 0 0 941 667 956 17 954 0 643 954 954 0 957 946 0 0 +16 955 2660 667 ?958 946
 959 960 0 0 1 31 943 2691 0 946 960 936 0 +0 .039 .016 0 0 1 1 0 0 .0045 31 960
 2692 0 955 961 943 0 +0 .039 .02 0 0 1 1 0 0 .0045 31 961 3112 0 959 962 960 0
 --.032 .005 .01 -1 0 0 0 0 1 .00225 16 959 3005 963 ?964 955 364 961 0 0 1 31 9
62 3113 0 364 965 961 0 -.032 .005 .01 -1 0 0 0 0 1 .00225 16 364 3008 966 ?967
 959 360 962 0 0 1 31 965 3114 0 365 968 962 0 --.032 .015 .01 -1 0 0 0 0 1 .002
25 16 365 3054 969 ?970 360 358 965 0 0 1 31 968 3115 0 358 971 965 0 -.032 .015
 .01 -1 0 0 0 0 1 .00225 16 358 3057 972 ?973 365 354 968 0 0 1 31 971 3117 0 97
4 975 968 0 +-.034 .015 .01 -1 0 0 0 0 1 .00225 16 974 3060 695 ?976 359 0 971 0
 0 1 31 975 3119 0 359 0 971 0 +-.034 .005 .01 -1 0 0 0 0 1 .00225 16 359 3011 6
68 ?977 354 974 975 0 0 1 81 1 668 3137 30 359 0 0 661 695 978 17 977 0 694 977
 977 0 979 359 0 0 +15 694 3027 0 977 684 980 17 979 0 557 979 979 0 977 359 0 0
 -15 557 2982 0 979 540 981 15 981 2975 0 982 540 983 17 982 0 981 982 982 0 976
 974 0 0 -15 983 533 0 508 540 0 17 508 0 983 445 237 60 984 479 0 985 +17 445 0
 983 986 508 64 985 442 0 503 +17 237 0 983 508 986 234 197 341 0 987 -17 984 0
 988 233 63 234 508 479 0 0 -17 985 0 522 989 67 60 445 442 0 0 -15 522 3719 0 9
89 514 0 17 989 0 522 990 985 53 63 458 0 0 -17 67 0 522 985 990 64 59 455 0 445
 -17 990 0 522 67 989 56 55 446 0 0 -17 59 0 44 201 503 56 67 455 0 991 +15 44 2
82 0 869 565 916 17 201 0 44 992 59 198 991 470 0 347 +17 503 0 44 59 993 64 986
 473 0 0 +17 991 0 994 55 347 56 201 470 0 990 -15 994 535 0 991 536 0 17 55 0 9
94 241 991 53 990 446 0 995 +17 347 0 994 991 241 198 996 344 0 878 +17 241 0 99
4 347 55 238 995 476 0 848 +17 996 0 785 997 878 238 347 344 0 0 -17 878 0 785 9
96 351 198 992 474 0 0 +15 785 537 0 878 541 0 17 351 0 785 878 997 202 998 348
 0 992 +17 992 0 44 999 201 202 878 474 0 0 -17 999 0 44 873 992 206 205 874 0 1
000 -17 873 0 44 869 999 210 1000 870 0 0 +17 205 0 1001 998 209 202 999 874 0 3
51 +17 1000 0 1002 249 213 206 873 870 0 0 -15 1002 541 0 1000 766 0 17 249 0 10
02 843 1000 246 209 316 0 1003 -17 213 0 1002 1000 843 210 252 310 0 1004 +17 84
3 0 1002 213 249 169 1005 840 0 0 +17 252 0 1006 839 1004 169 213 310 0 1007 -17
 1004 0 1006 252 177 210 869 815 0 873 -15 1006 543 0 1004 754 0 17 177 0 1006 1
004 839 174 1008 322 0 897 +17 869 0 44 1009 873 174 1004 815 0 0 +17 1009 0 44
 46 869 178 897 485 0 0 -17 46 0 44 40 1009 49 181 482 0 0 -17 897 0 794 1008 32
9 174 1009 485 0 869 +15 794 517 0 897 529 0 17 1008 0 794 1010 897 164 177 322
 0 839 -17 329 0 794 897 1010 178 1011 325 0 1009 +17 1010 0 794 329 1008 218 21
7 326 0 0 -17 1011 0 1012 1013 181 218 329 325 0 1010 -15 1012 519 0 1013 525 0
 17 1013 0 1012 452 1011 41 221 488 0 1014 -17 181 0 1012 1011 452 178 46 482 0
 329 +17 452 0 1012 181 1013 49 1014 449 0 46 +17 1014 0 515 1015 47 41 452 449
 0 0 -15 515 3740 0 1015 19 0 17 1015 0 515 37 1014 12 25 11 0 0 -17 47 0 515 10
14 37 49 40 26 0 452 -17 37 0 515 47 1015 29 28 38 0 0 -17 25 0 988 221 39 41 10
15 11 0 1013 +15 988 5 0 1007 561 0 17 221 0 988 217 25 218 1013 488 0 1011 +17
 39 0 988 25 225 12 35 491 0 1015 +17 225 0 988 39 1016 222 1017 499 0 1018 +17
 35 0 34 333 28 222 39 491 0 0 -15 34 521 0 36 530 0 17 333 0 34 36 35 182 1018
 330 0 45 +17 36 0 34 28 333 29 45 486 0 37 +17 1018 0 800 1017 185 222 333 330
 0 35 -17 45 0 44 1019 40 182 36 486 0 0 -17 1019 0 44 892 45 186 185 495 0 1020
 -17 892 0 44 159 1019 136 1020 889 0 0 +17 185 0 800 1018 189 182 1019 495 0 33
3 +17 1020 0 1021 229 378 186 892 889 0 0 -15 1021 525 0 862 799 0 17 229 0 1021
 862 1020 226 189 334 0 1017 -17 378 0 1021 1020 862 136 1022 375 0 892 +17 862
 0 1021 378 229 132 1016 859 0 1022 +17 1022 0 708 1023 139 132 378 375 0 0 -15
 708 3338 0 1023 700 0 17 1023 0 708 1024 1022 148 135 407 0 0 -17 139 0 708 102
2 1024 136 159 404 0 378 -17 1024 0 708 139 1023 156 151 313 0 0 -17 159 0 44 10
25 892 156 139 404 0 888 +17 1025 0 44 147 159 160 888 885 0 0 -17 888 0 1026 15
1 371 156 1025 885 0 1024 +15 1026 527 0 1027 1028 0 17 151 0 1026 1027 888 148
 1024 313 0 858 +17 371 0 1026 888 1027 160 1029 368 0 1025 +17 1027 0 1026 371
 151 152 858 855 0 1029 -17 1029 0 701 1030 163 152 371 368 0 0 -15 701 3317 0 1
030 693 0 17 1030 0 701 1031 1029 140 155 401 0 0 -17 163 0 701 1029 1031 160 14
7 398 0 371 -17 1031 0 701 163 1030 144 143 372 0 0 -17 147 0 44 1032 1025 144 1
63 398 0 884 +17 1032 0 44 993 147 190 884 881 0 0 -17 884 0 1033 143 340 144 10
32 881 0 1031 +15 1033 529 0 884 806 0 17 143 0 1033 1034 884 140 1031 372 0 854
 +17 340 0 1033 884 1034 190 1035 337 0 1032 +17 1034 0 1033 340 143 230 854 851
 0 0 -17 1035 0 807 987 193 230 340 337 0 1034 -15 807 531 0 193 556 0 17 987 0
 807 197 1035 234 233 509 0 984 -17 193 0 807 1035 197 190 993 504 0 340 +17 197
 0 807 193 987 194 237 341 0 993 +17 993 0 44 503 1032 194 193 504 0 986 -17 986
 0 983 237 445 194 503 473 0 0 -17 233 0 988 854 984 230 987 509 0 1035 +17 854
 0 988 155 233 140 1034 851 0 1030 +17 155 0 988 858 854 152 1030 401 0 1027 +17
 858 0 988 135 155 148 1027 855 0 1023 +17 135 0 988 1016 858 132 1023 407 0 862
 +17 1016 0 988 225 135 226 862 859 0 0 -14 806 530 809 ?1028 556 1036 6 1037 -0
 0 1028 556 23 81 1 809 3815 516 806 1038 0 559 1039 1040 14 1028 528 1039 ?799
 806 1041 6 1042 -0 0 799 806 23 15 1036 2970 0 1043 806 1044 50 255 1037 557 0
 806 1042 808 0 +-.032 .0125 .02 -1 0 0 0 0 1 13 23 189 0 0 0 0 0 0 10 17 50 104
2 556 0 1028 1045 1037 0 +0 .025 .02 -216840434497101e-30 1 0 -1 -21684043449710
1e-30 0 50 808 558 0 556 1037 558 0 +-.033 -520417042793042e-32 .02 -17347234759
76805e-30 1 0 -1 -1734723475976805e-30 0 50 558 559 0 540 808 543 0 +-.034 .0191
715728752538 .02 -1 0 0 0 0 1 50 543 560 0 536 558 786 0 +-.0439073006666759 .02
843584508383175 .02 .707106781186548 -.707106781186547 0 .707106781186547 .70710
6781186548 0 50 786 561 0 541 543 780 0 +-.0552288148957249 .0199427579795289 .0
2 .707106781186547 .707106781186548 0 -.707106781186548 .707106781186547 0 50 78
0 562 0 773 786 775 0 +-.040821514229049 .037178485770951 .02 .707106781186548 -
.707106781186548 0 .707106781186548 .707106781186548 0 50 775 563 0 766 780 768
 0 +-3469446951953615e-33 .053 .02 0 1 0 0 0 1 50 768 564 0 754 775 702 0 +.0408
21514229049 .037178485770951 .02 .707106781186547 .707106781186548 0 -.707106781
186548 .707106781186547 0 51 702 3328 0 693 768 709 0 +-.0305 .0235 .02 0 0 1 .0
015 1 0 0 51 709 3349 0 700 702 717 0 +.0305 .0235 .02 0 0 -1 .0015 -1 0 0 51 71
7 3370 0 707 709 724 0 +.0285 .041721825406948 .02 0 0 -1 .0015 -1 0 0 51 724 33
91 0 715 717 729 0 +.0285 .0305 .02 0 0 -1 .0015 -1 0 0 51 729 3569 0 722 724 73
5 0 +-.0285 .0305 .02 0 0 1 .0015 1 0 0 51 735 3590 0 521 729 20 0 +-.0285 .0417
21825406948 .02 0 0 1 .0015 1 0 0 51 20 3730 0 514 735 7 0 +-.0355 .034721825406
948 .02 0 0 1 .0015 1 0 0 50 1045 555 0 799 801 1042 0 +.032 .0125 .02 -1 0 0 0
 0 1 14 799 526 802 ?549 1028 1046 6 1045 +0 0 549 1028 23 50 801 554 0 549 551
 1045 0 +.033 -783773951454307e-32 .02 -2449293598294705e-31 1 0 -1 -24492935982
94705e-31 0 50 551 553 0 530 532 801 0 +.034 .0191715728752538 .02 -1 0 0 0 0 1
 50 532 552 0 525 795 551 0 +.0439073006666759 .0284358450838317 .02 .7071067811
86547 .707106781186548 0 -.707106781186548 .707106781186547 0 50 795 551 0 529 7
57 532 0 +.0552288148957249 .0199427579795289 .02 -.707106781186544 .70710678118
6551 0 -.707106781186551 -.707106781186544 0 50 757 550 0 751 743 795 0 +0 .029
 .02 1156482317317872e-31 -1 0 1 1156482317317872e-31 0 50 743 549 0 17 748 757
 0 +-.03 .0356715728752538 .02 -1 0 0 0 0 1 50 748 548 0 741 1047 743 0 +-.02667
15728752538 .0456715728752538 .02 -.707106781186548 .707106781186547 0 -.7071067
81186547 -.707106781186548 0 50 1047 547 0 304 1048 748 0 +-3469446951953615e-33
 .049 .02 0 1 0 0 0 1 14 304 510 749 ?296 741 1049 6 1047 -0 0 296 741 23 50 104
8 546 0 296 1050 1047 0 +.0266715728752538 .0456715728752538 .02 .70710678118654
8 .707106781186547 0 -.707106781186547 .707106781186548 0 14 296 508 762 ?755 30
4 1051 6 1048 -0 0 755 304 23 50 1050 545 0 755 572 1048 0 +.03 .035671572875253
8 .02 -1 0 0 0 0 1 14 755 506 758 ?751 296 919 6 1050 +0 0 751 296 23 50 572 444
 0 565 567 1050 0 +693889390390723e-32 .0265 0 0 0 1 1 0 0 50 567 2 0 561 581 57
2 0 +693889390390723e-32 .0265 .02 0 0 1 1 0 0 51 581 1031 0 571 589 567 0 -.052
5695761313457 .0218797132928622 .01 .707106781186547 .707106781186548 0 .0017 -.
707106781186548 .707106781186547 0 51 589 1034 0 579 605 581 0 -.026406625227443
4 .0480426641967645 .01 .707106781186547 .707106781186548 0 .0017 -.707106781186
548 .707106781186547 0 51 605 1325 0 595 597 589 0 --.02641724704289995 .0480532
86012221 .01 -.707106781186548 .707106781186547 0 .00165 -.707106781186547 -.707
106781186548 0 51 597 1328 0 587 613 605 0 --.0525801979468022 .0218903351083187
5 .01 -.707106781186548 .707106781186548 0 .00165 -.707106781186548 -.7071067811
86548 0 51 613 1631 0 603 621 597 0 -.0185 .0505042899893023 .01 0 1 0 .00165 0
 0 1 51 621 1634 0 611 629 613 0 --.0185 .0505042899893023 .01 0 1 0 .00165 0 0
 1 51 629 1948 0 619 636 621 0 -.02 .02749571001069775 .01485 0 -1 0 .00165 0 0
 -1 51 636 1951 0 627 652 629 0 --.02 .02749571001069775 .01485 0 -1 0 .00165 0
 0 -1 50 652 2406 0 642 644 636 0 +0 .029 .016 -1156482317317872e-31 1 0 -1 -115
6482317317872e-31 0 50 644 2413 0 283 666 652 0 +693889390390723e-32 .0265 .016
 0 0 1 1 0 0 51 666 2690 0 657 675 644 0 -0 .039 .016648063607188 0 0 1 .0045 1
 0 0 51 675 3108 0 676 683 666 0 -.0933358698686385 .015 .01 -1 0 0 .00225 0 0 1
 51 683 3111 0 684 0 675 0 -.0933358698686385 .005 .01 -1 0 0 .00225 0 0 1 81 1
 762 3805 516 296 1052 0 749 758 1053 15 1051 958 0 814 296 294 17 814 0 1051 81
4 814 0 1054 811 0 0 +17 1054 0 1055 1054 1054 0 814 811 0 0 -15 1055 997 0 1054
 579 0 81 1 1052 3468 30 296 0 762 761 1056 1057 81 1 749 3804 516 304 1058 0 74
4 762 1059 83 3 1053 .615686274509804 .811764705882353 .929411764705882 81 1 105
8 2507 30 304 0 749 292 1060 1061 83 3 1059 .615686274509804 .811764705882353 .9
29411764705882 81 1 292 2499 30 280 0 0 308 1058 1062 81 1 1060 2509 30 1063 0 0
 1058 1064 1065 82 3 1061 54 5 2 16 1063 2105 1060 ?1066 1067 1068 1069 1067 106
7 1 81 1 1064 2510 30 1067 0 0 1060 1070 1071 82 3 1065 54 11 1 16 1067 1894 106
4 ?255 1072 1063 1069 1063 1063 1 81 1 1070 2511 30 933 0 0 1064 1073 1074 82 3
 1071 54 12 1 16 933 2112 1070 ?930 1075 1076 1077 1075 1075 1 81 1 1073 2512 30
 1075 0 0 1070 659 1078 82 3 1074 54 13 1 16 1075 1921 1073 ?263 1068 933 1077 9
33 933 1 81 1 659 2515 30 942 0 0 1073 653 1079 82 3 1078 54 14 1 16 942 2298 65
9 ?1080 935 945 936 935 945 1 82 3 1079 54 17 1 17 1080 0 277 949 927 256 931 94
2 0 1066 +17 949 0 277 282 1080 214 259 945 0 950 +17 927 0 277 1080 267 260 929
 935 0 931 +17 931 0 756 930 1066 260 1080 942 0 932 -17 1066 0 756 931 950 256
 1081 1063 0 1082 +17 950 0 756 1066 79 214 282 937 0 1081 -17 1081 0 1083 1082
 1082 214 1066 1063 0 0 -17 1082 0 1083 1081 1081 256 255 1067 0 0 -15 1083 1914
 0 1082 627 0 17 255 0 658 259 259 214 1082 1067 0 949 +15 658 2371 0 259 650 0
 17 259 0 658 255 255 256 949 945 0 1080 -17 79 0 756 950 900 76 1084 423 0 282
 +17 900 0 756 79 397 80 918 898 0 1084 +17 1084 0 728 91 951 80 79 423 0 0 -15
 728 3558 0 951 722 0 17 91 0 728 1085 1084 88 83 436 0 422 -17 951 0 728 1084 1
085 76 99 429 0 0 -17 1085 0 728 951 91 96 422 419 0 0 -17 99 0 277 1086 282 96
 951 429 0 1087 +17 1086 0 277 75 99 92 1087 1088 0 1089 +17 1087 0 742 422 95 9
6 1086 1088 0 1085 -15 742 2174 0 1087 17 0 17 422 0 742 904 1087 88 1085 419 0
 1090 +17 95 0 742 1087 904 92 1091 416 0 1086 +16 1088 3477 1092 ?1086 1076 287
 1093 0 0 1 81 1 1092 3624 30 1088 0 0 428 947 1094 16 1076 1916 637 ?1095 933 1
088 1096 0 0 1 16 287 3516 947 ?271 1088 280 1097 0 0 1 30 1093 2426 0 1088 1097
 1098 0 +-.03 .0356715728752538 .016 0 1 0 30 1097 2427 0 287 293 1093 0 +-.0266
715728752538 .0456715728752538 .016 .707106781186547 .707106781186548 0 31 1098
 1955 0 1068 1093 1069 0 +-.02 .025 .01485 0 -1 0 0 0 -1 .00165 16 1068 1889 776
 ?1099 1063 1075 1098 0 0 1 31 1069 1954 0 1067 1098 1096 0 +-.02 .029 .01485 0
 -1 0 0 0 -1 .00165 31 1096 1953 0 1076 1069 1077 0 +.02 .025 .01485 0 -1 0 0 0
 -1 .00165 31 1077 1952 0 1075 1096 1100 0 +.02 .029 .01485 0 -1 0 0 0 -1 .00165
 31 1100 1638 0 1101 1077 1102 0 +-.0185 .053 .01 0 1 0 0 0 1 .00165 16 1101 157
2 1103 ?1104 1105 1106 1100 0 0 1 31 1102 1637 0 1105 1100 1107 0 +-.0185 .049 .
01 0 1 0 0 0 1 .00165 16 1105 1577 781 ?1108 1109 1101 1102 0 0 1 31 1107 1636 0
 1072 1102 1110 0 +.0185 .053 .01 0 1 0 0 0 1 .00165 16 1072 1599 622 ?1111 1106
 1067 1107 0 0 1 31 1110 1635 0 1106 1107 1112 0 +.0185 .049 .01 0 1 0 0 0 1 .00
165 16 1106 1604 1113 ?1114 1101 1072 1110 0 0 1 31 1112 1332 0 833 1110 834 0 +
-.0543449314192417 .0236550685807583 .01 -.707106781186548 .707106781186548 0 -.
707106781186548 -.707106781186548 0 .00165 16 833 1266 1115 ?1116 829 1117 1112
 0 0 1 31 834 1331 0 829 1112 1118 0 +-.0515165042944955 .0208266414560121 .01 -
.707106781186548 .707106781186548 0 -.707106781186548 -.707106781186548 0 .00165
 31 1118 1330 0 1109 834 1119 0 +-.0281819805153395 .0498180194846606 .01 -.7071
06781186548 .707106781186547 0 -.707106781186547 -.707106781186548 0 .00165 16 1
109 1293 598 ?1120 1117 1105 1118 0 0 1 31 1119 1329 0 1117 1118 822 0 +-.025353
5533905933 .0469895923599144 .01 -.707106781186548 .707106781186547 0 -.70710678
1186547 -.707106781186548 0 .00165 16 1117 1298 1121 ?1122 833 1109 1119 0 0 1 3
1 822 1038 0 816 1119 817 0 +.02818198051533945 .0498180194846605 .01 .707106781
186547 .707106781186548 0 -.707106781186548 .707106781186547 0 .0017 81 1 1121 1
340 30 1117 0 0 1115 598 1123 17 1122 0 747 1122 1122 0 1124 1117 0 0 +15 747 12
52 0 1122 741 1125 17 1124 0 1126 1124 1124 0 1122 1117 0 0 -15 1126 1318 0 1124
 595 0 15 1125 2169 0 286 741 0 17 286 0 1125 435 291 72 271 287 0 1127 -17 435
 0 1125 173 286 68 1127 432 0 1128 +17 291 0 1125 286 173 268 289 309 0 0 -17 11
27 0 734 1089 71 72 435 432 0 0 -15 734 3579 0 1089 521 0 17 1089 0 734 1091 112
7 92 75 426 0 0 -17 71 0 734 1127 1091 68 87 439 0 435 -17 1091 0 734 71 1089 84
 95 416 0 0 -17 87 0 916 1090 1128 84 71 439 0 904 +17 1090 0 916 83 87 88 904 9
01 0 0 -17 1128 0 916 87 305 68 173 905 0 0 -17 904 0 742 95 422 84 1090 901 0 1
091 +17 305 0 916 1128 307 170 298 306 0 0 -17 173 0 1125 291 435 170 1128 905 0
 289 +17 289 0 288 298 279 170 291 309 0 305 +17 307 0 916 305 111 165 295 909 0
 0 -17 83 0 916 918 1090 80 91 436 0 900 +17 918 0 916 123 83 100 900 898 0 0 -1
7 75 0 277 271 1086 72 1089 426 0 286 +81 1 1115 1339 30 833 0 0 769 1121 1129 8
1 1 598 1341 30 1109 0 0 1121 592 1130 82 3 1123 28 2 1 82 3 1130 28 3 1 81 1 76
9 1338 30 829 0 0 583 1115 1131 82 3 1129 28 1 1 82 3 1131 28 0 1 17 1120 0 604
 1120 1120 0 1132 1109 0 0 +15 604 1317 0 1120 595 1126 17 1132 0 1133 1132 1132
 0 1120 1109 0 0 -15 1133 1238 0 1132 773 1001 15 1001 539 0 205 773 0 17 1116 0
 596 1116 1116 0 1134 833 0 0 +15 596 1290 0 1116 587 1135 17 1134 0 779 1134 11
34 0 1116 833 0 0 -15 779 1245 0 1134 773 1133 15 1135 1291 0 1136 587 0 17 1136
 0 1135 1136 1136 0 832 829 0 0 -17 832 0 542 832 832 0 1136 829 0 0 +15 542 123
0 0 832 536 994 81 1 1113 1646 30 1106 0 0 1103 622 1137 17 1114 0 1049 1114 111
4 0 1138 1106 0 0 +15 1049 1551 0 1114 304 1139 17 1138 0 1140 1138 1138 0 1114
 1106 0 0 -15 1140 1624 0 1138 603 0 15 1139 1558 0 1108 304 288 17 1108 0 1139
 1108 1108 0 1141 1105 0 0 +17 1141 0 1142 1141 1141 0 1108 1105 0 0 -15 1142 15
97 0 1141 611 0 81 1 1103 1645 30 1101 0 0 781 1113 1143 81 1 622 1647 30 1072 0
 0 1113 614 1144 82 3 1137 39 2 1 82 3 1144 39 3 1 81 1 781 1644 30 1105 0 0 606
 1103 1145 82 3 1143 39 1 1 82 3 1145 39 0 1 17 1111 0 612 1111 1111 0 1146 1072
 0 0 +15 612 1623 0 1111 603 1140 17 1146 0 1147 1146 1146 0 1111 1072 0 0 -15 1
147 1536 0 1146 766 1002 17 1104 0 620 1104 1104 0 1148 1101 0 0 +15 620 1596 0
 1104 611 1142 17 1148 0 774 1148 1148 0 1104 1101 0 0 -15 774 1543 0 1148 766 1
147 81 1 776 1962 30 1068 0 0 615 637 1149 17 1099 0 635 1099 1099 0 1150 1068 0
 0 +15 635 1913 0 1099 627 1083 17 1150 0 1041 1150 1150 0 1099 1068 0 0 -15 104
1 1861 0 1150 1028 1151 15 1151 1854 0 1152 1028 1026 17 1152 0 1151 1152 1152 0
 1095 1076 0 0 -17 1095 0 628 1095 1095 0 1152 1076 0 0 +15 628 1940 0 1095 619
 1153 15 1153 1941 0 934 619 0 17 934 0 1153 932 932 264 263 1075 0 0 -17 932 0
 1153 934 934 260 930 933 0 0 -17 263 0 651 929 929 260 934 1075 0 927 +15 651 2
375 0 929 642 0 17 929 0 651 263 263 264 927 935 0 930 -81 1 637 1964 30 1076 0
 0 776 630 1154 82 3 1149 50 1 1 82 3 1154 50 3 1 30 293 2428 0 280 303 1097 0 +
-3469446951953615e-33 .049 .016 1 0 0 30 303 2429 0 284 940 293 0 +.026671572875
2538 .0456715728752538 .016 .707106781186547 -.707106781186548 0 30 940 2430 0 3
02 936 303 0 +.03 .0356715728752538 .016 0 1 0 81 1 947 3625 30 287 0 0 1092 944
 1155 82 3 1155 74 11 1 81 1 428 3623 30 426 0 0 441 1092 1156 82 3 1094 74 10 1
 81 1 441 3622 30 439 0 0 434 428 1157 82 3 1156 74 9 1 81 1 434 3621 30 432 0 0
 418 441 1158 82 3 1157 74 8 1 81 1 418 3620 30 416 0 0 431 434 1159 82 3 1158 7
4 7 1 81 1 431 3619 30 429 0 0 425 418 1160 82 3 1159 74 6 1 81 1 425 3618 30 42
3 0 0 438 431 1161 82 3 1160 74 5 1 81 1 438 3617 30 436 0 0 421 425 1162 82 3 1
161 74 4 1 81 1 421 3616 30 419 0 0 907 438 1163 82 3 1162 74 3 1 81 1 907 3615
 30 905 0 0 903 421 1164 82 3 1163 74 2 1 81 1 903 3614 30 901 0 0 74 907 1165 8
2 3 1164 74 1 1 81 1 74 3613 30 72 0 0 70 903 1166 82 3 1165 74 0 1 81 1 70 3612
 30 68 0 0 94 74 1167 82 3 1166 74 7 0 81 1 94 3611 30 92 0 0 86 70 1168 82 3 11
67 74 6 0 81 1 86 3610 30 84 0 0 78 94 1169 82 3 1168 74 5 0 81 1 78 3609 30 76
 0 0 82 86 1170 82 3 1169 74 4 0 81 1 82 3608 30 80 0 0 98 78 1171 82 3 1170 74
 3 0 81 1 98 3607 30 96 0 0 90 82 1172 82 3 1171 74 2 0 81 1 90 3606 30 88 0 0 1
038 98 1173 82 3 1172 74 1 0 81 1 1038 3473 30 806 0 809 1056 90 1174 82 3 1173
 74 0 0 81 1 1056 3472 30 799 0 802 1052 1038 1175 82 3 1174 73 12 2 81 1 802 38
17 516 799 1056 0 1039 552 1176 82 3 1175 73 11 2 81 1 1039 3816 516 1028 718 0
 809 802 1177 83 3 1176 .615686274509804 .811764705882353 .929411764705882 81 1
 718 3466 30 1028 0 1039 712 761 1178 83 3 1177 .615686274509804 .81176470588235
3 .929411764705882 81 1 761 3467 30 755 0 758 718 1052 1179 82 3 1178 73 5 2 82
 3 1179 73 6 2 82 3 1062 54 8 1 82 3 1057 73 7 2 15 1046 2957 0 967 799 1180 17
 967 0 1046 967 967 0 1181 364 0 0 +15 1180 2951 0 973 799 1021 17 973 0 1180 97
3 973 0 1182 358 0 0 +17 1182 0 674 1182 1182 0 973 358 0 0 -15 674 3086 0 1182
 664 1183 15 1183 3087 0 357 664 0 17 357 0 1183 357 357 0 1184 354 0 0 +17 1184
 0 1185 1184 1184 0 357 354 0 0 -15 1185 2938 0 1184 530 34 17 1181 0 682 1181 1
181 0 967 364 0 0 -15 682 3037 0 1181 673 1186 15 1186 3038 0 363 673 0 17 363 0
 1186 363 363 0 1187 360 0 0 +17 1187 0 550 1187 1187 0 363 360 0 0 -15 550 2945
 0 1187 530 1185 17 1043 0 1036 1043 1043 0 964 959 0 0 -15 1044 2964 0 1188 806
 1033 17 1188 0 1044 1188 1188 0 970 365 0 0 -17 970 0 1189 970 970 0 1188 365 0
 0 +15 1189 3077 0 970 676 0 17 964 0 980 964 964 0 1043 959 0 0 +15 980 3028 0
 964 684 0 83 3 1040 .615686274509804 .811764705882353 .929411764705882 17 189 0
 800 185 1017 186 229 334 0 1019 +17 1017 0 800 189 1018 226 225 499 0 1016 -15
 800 523 0 185 549 0 17 217 0 988 1007 221 164 1010 326 0 1008 +17 1007 0 988 10
05 217 169 839 836 0 843 -17 1005 0 988 245 1007 246 843 840 0 0 -17 839 0 1006
 177 252 164 1007 836 0 0 +17 245 0 988 848 1005 242 1003 844 0 998 +17 848 0 98
8 995 245 238 997 480 0 996 +17 1003 0 1001 209 998 246 245 844 0 1005 -17 998 0
 1001 1003 205 242 351 348 0 997 -17 997 0 785 351 996 242 848 480 0 0 -17 209 0
 1001 205 1003 206 249 316 0 999 +17 995 0 988 63 848 53 241 476 0 989 -17 63 0
 988 984 995 60 989 458 0 508 +17 976 0 689 976 976 0 982 974 0 0 +15 689 3076 0
 976 676 1189 81 1 695 3138 30 974 0 0 668 685 1190 82 3 978 72 0 1 82 3 1190 72
 1 1 81 1 972 3150 30 358 0 0 966 963 1191 81 1 966 3149 30 364 0 0 356 972 1192
 81 1 963 3151 30 959 0 0 972 969 1193 82 3 1191 72 5 1 81 1 969 3152 30 365 0 0
 963 162 1194 82 3 1193 72 6 1 81 1 162 3417 30 160 0 0 969 146 1195 82 3 1194 7
2 7 1 81 1 146 3418 30 144 0 0 162 154 1196 82 3 1195 73 0 0 81 1 154 3419 30 15
2 0 0 146 142 1197 82 3 1196 73 1 0 81 1 142 3420 30 140 0 0 154 158 1198 82 3 1
197 73 2 0 81 1 158 3421 30 156 0 0 142 138 1199 82 3 1198 73 3 0 81 1 138 3422
 30 136 0 0 158 150 1200 82 3 1199 73 4 0 81 1 150 3423 30 148 0 0 138 134 1201
 82 3 1200 73 5 0 81 1 134 3424 30 132 0 0 150 122 1202 82 3 1201 73 6 0 81 1 12
2 3425 30 120 0 0 134 102 1203 82 3 1202 73 7 0 81 1 102 3426 30 100 0 0 122 118
 1204 82 3 1203 73 8 0 81 1 118 3427 30 116 0 0 102 110 1205 82 3 1204 73 9 0 81
 1 110 3428 30 108 0 0 118 130 1206 82 3 1205 73 10 0 81 1 130 3429 30 128 0 0 1
10 106 1207 82 3 1206 73 11 0 81 1 106 3430 30 104 0 0 130 126 1208 82 3 1207 73
 12 0 81 1 126 3431 30 124 0 0 106 114 1209 82 3 1208 73 13 0 81 1 114 3432 30 1
12 0 0 126 400 1210 82 3 1209 73 14 0 81 1 400 3433 30 398 0 0 114 370 1211 82 3
 1210 73 15 0 81 1 370 3434 30 368 0 0 400 403 1212 82 3 1211 73 0 1 81 1 403 34
35 30 401 0 0 370 374 1213 82 3 1212 73 1 1 81 1 374 3436 30 372 0 0 403 406 121
4 82 3 1213 73 2 1 81 1 406 3437 30 404 0 0 374 367 1215 82 3 1214 73 3 1 81 1 3
67 3438 30 313 0 0 406 409 1216 82 3 1215 73 4 1 81 1 409 3439 30 407 0 0 367 37
7 1217 82 3 1216 73 5 1 81 1 377 3440 30 375 0 0 409 913 1218 82 3 1217 73 6 1 8
2 3 1218 73 7 1 81 1 356 3148 30 354 0 0 362 966 1219 82 3 1192 72 4 1 81 1 362
 3147 30 360 0 0 670 356 1220 82 3 1219 72 3 1 82 3 1220 72 2 1 81 1 667 2696 30
 955 0 0 953 661 1221 17 958 0 665 958 958 0 1222 955 0 0 +15 665 2684 0 958 657
 1223 17 1222 0 566 1222 1222 0 958 955 0 0 -15 566 2649 0 1222 561 988 15 1223
 2685 0 957 657 0 17 957 0 1223 957 957 0 954 946 0 0 -82 3 1221 61 1 1 15 643 2
643 0 954 283 277 81 1 941 2523 30 935 0 0 952 953 1224 82 3 956 61 0 1 81 1 952
 2522 30 945 0 0 262 941 1225 82 3 1224 54 19 1 81 1 262 2521 30 260 0 0 266 952
 1226 82 3 1225 54 18 1 81 1 266 2520 30 264 0 0 258 262 1227 82 3 1226 54 9 0 8
1 1 258 2519 30 256 0 0 254 266 1228 82 3 1227 54 8 0 81 1 254 2518 30 214 0 0 6
47 258 1229 82 3 1228 54 7 0 82 3 1229 54 6 0 81 1 730 3627 30 898 0 0 944 726 1
230 82 3 948 74 12 1 82 3 1230 74 13 1 81 1 938 3453 30 302 0 0 393 911 1231 17
 921 0 919 385 131 124 922 302 0 923 +17 923 0 716 285 119 124 385 382 0 0 -15 7
16 3359 0 285 707 0 17 285 0 716 299 923 112 127 391 0 0 -17 119 0 716 923 299 1
16 111 410 0 385 -17 299 0 716 119 285 108 115 300 0 0 -17 127 0 277 922 278 124
 285 391 0 921 +81 1 393 3452 30 391 0 0 387 938 1232 82 3 1231 73 20 1 81 1 387
 3451 30 300 0 0 384 393 1233 82 3 1232 73 19 1 81 1 384 3450 30 382 0 0 390 387
 1234 82 3 1233 73 18 1 81 1 390 3449 30 388 0 0 396 384 1235 82 3 1234 73 17 1
 81 1 396 3448 30 394 0 0 381 390 1236 82 3 1235 73 16 1 81 1 381 3447 30 379 0
 0 412 396 1237 82 3 1236 73 15 1 81 1 412 3446 30 410 0 0 415 381 1238 82 3 123
7 73 14 1 81 1 415 3445 30 413 0 0 857 412 1239 82 3 1238 73 13 1 81 1 857 3443
 30 855 0 0 887 415 1240 82 3 1239 73 12 1 81 1 887 3442 30 885 0 0 913 857 1241
 82 3 1240 73 10 1 82 3 1241 73 9 1 82 3 939 73 21 1 82 3 915 73 8 1 81 1 891 34
56 30 889 0 0 910 861 1242 82 3 912 73 22 1 81 1 861 3457 30 859 0 0 891 883 124
3 82 3 1242 73 23 1 81 1 883 3458 30 881 0 0 861 853 1244 82 3 1243 73 24 1 81 1
 853 3459 30 851 0 0 883 301 1245 82 3 1244 73 25 1 81 1 301 3460 30 284 0 0 853
 697 1246 82 3 1245 73 26 1 82 3 1246 73 27 1 81 1 908 720 30 306 0 0 847 896 12
47 81 1 847 719 30 480 0 0 877 908 1248 81 1 896 722 30 485 0 0 908 866 1249 82
 3 1247 6 32 1 81 1 866 723 30 326 0 0 896 893 1250 82 3 1249 6 34 1 81 1 893 72
8 30 495 0 0 866 863 1251 82 3 1250 6 35 1 81 1 863 729 30 499 0 0 893 790 1252
 82 3 1251 6 40 1 81 1 790 742 30 504 0 0 863 787 1253 82 3 1252 6 41 1 82 3 125
3 6 54 1 81 1 877 718 30 474 0 0 846 847 1254 82 3 1248 6 31 1 81 1 846 713 30 8
44 0 0 876 877 1255 82 3 1254 6 30 1 81 1 876 712 30 874 0 0 838 846 1256 82 3 1
255 6 25 1 81 1 838 711 30 836 0 0 868 876 1257 82 3 1256 6 24 1 81 1 868 710 30
 815 0 0 842 838 1258 82 3 1257 6 23 1 81 1 842 709 30 840 0 0 872 868 1259 82 3
 1258 6 22 1 81 1 872 708 30 870 0 0 339 842 1260 82 3 1259 6 21 1 81 1 339 707
 30 337 0 0 336 872 1261 82 3 1260 6 20 1 81 1 336 704 30 334 0 0 343 339 1262 8
2 3 1261 6 19 1 81 1 343 702 30 341 0 0 332 336 1263 82 3 1262 6 16 1 81 1 332 7
00 30 330 0 0 328 343 1264 82 3 1263 6 14 1 81 1 328 699 30 325 0 0 346 332 1265
 82 3 1264 6 12 1 81 1 346 696 30 344 0 0 350 328 1266 82 3 1265 6 11 1 81 1 350
 691 30 348 0 0 324 346 1267 82 3 1266 6 8 1 81 1 324 690 30 322 0 0 315 350 126
8 82 3 1267 6 3 1 81 1 315 689 30 310 0 0 352 324 1269 82 3 1268 6 2 1 81 1 352
 688 30 316 0 0 232 315 1270 82 3 1269 6 1 1 81 1 232 687 30 230 0 0 192 352 127
1 82 3 1270 6 0 1 81 1 192 686 30 190 0 0 228 232 1272 82 3 1271 6 39 0 81 1 228
 681 30 226 0 0 188 192 1273 82 3 1272 6 38 0 81 1 188 680 30 186 0 0 236 228 12
74 82 3 1273 6 33 0 81 1 236 677 30 234 0 0 196 188 1275 82 3 1274 6 32 0 81 1 1
96 676 30 194 0 0 224 236 1276 82 3 1275 6 29 0 81 1 224 673 30 222 0 0 184 196
 1277 82 3 1276 6 28 0 81 1 184 672 30 182 0 0 220 224 1278 82 3 1277 6 25 0 81
 1 220 671 30 218 0 0 180 184 1279 82 3 1278 6 24 0 81 1 180 670 30 178 0 0 167
 220 1280 82 3 1279 6 23 0 81 1 167 668 30 165 0 0 172 180 1281 82 3 1280 6 22 0
 81 1 172 666 30 170 0 0 240 167 1282 82 3 1281 6 20 0 81 1 240 665 30 238 0 0 2
00 172 1283 82 3 1282 6 18 0 81 1 200 664 30 198 0 0 244 240 1284 82 3 1283 6 17
 0 81 1 244 655 30 242 0 0 204 200 1285 82 3 1284 6 16 0 81 1 204 654 30 202 0 0
 216 244 1286 82 3 1285 6 7 0 81 1 216 653 30 164 0 0 176 204 1287 82 3 1286 6 6
 0 81 1 176 652 30 174 0 0 251 216 1288 82 3 1287 6 5 0 81 1 251 651 30 169 0 0
 212 176 1289 82 3 1288 6 4 0 81 1 212 650 30 210 0 0 248 251 1290 82 3 1289 6 3
 0 81 1 248 649 30 246 0 0 208 212 1291 82 3 1290 6 2 0 81 1 208 648 30 206 0 0
 0 248 1292 82 3 1291 6 1 0 82 3 1292 6 0 0 15 580 1023 0 828 571 1293 17 831 0
 1294 831 831 0 828 825 0 0 -15 1294 943 0 831 754 1006 15 1293 1024 0 1295 571
 0 17 1295 0 1293 1295 1295 0 824 821 0 0 -17 824 0 531 824 824 0 1295 821 0 0 +
15 531 937 0 824 525 1012 17 820 0 588 820 820 0 1296 816 0 0 +15 588 996 0 820
 579 1055 17 1296 0 767 1296 1296 0 820 816 0 0 -15 767 950 0 1296 754 1294 83 3
 810 .615686274509804 .811764705882353 .929411764705882 83 3 803 .61568627450980
4 .811764705882353 .929411764705882 83 3 796 .615686274509804 .811764705882353 .
929411764705882 82 3 791 6 55 1 82 3 782 28 2 2 82 3 777 39 2 2 82 3 770 17 2 2
 83 3 763 .615686274509804 .811764705882353 .929411764705882 83 3 750 .615686274
509804 .811764705882353 .929411764705882 83 3 745 .615686274509804 .811764705882
353 .929411764705882 82 3 732 74 0 2 82 3 725 73 2 2 82 3 719 73 3 2 82 3 711 73
 1 2 82 3 704 73 0 2 82 3 696 72 4 2 82 3 690 72 6 2 82 3 686 72 5 2 82 3 678 72
 7 2 82 3 669 61 0 2 82 3 660 54 7 2 82 3 654 54 8 2 81 1 48 3767 30 41 0 0 639
 31 1297 82 3 646 74 6 2 81 1 31 3768 30 49 0 0 48 27 1298 82 3 1297 75 0 0 82 3
 1298 75 1 0 82 3 638 50 0 2 81 1 631 2484 30 1 0 1299 624 270 1300 82 3 632 50
 1 2 81 1 1299 3799 1301 1 631 14 0 0 1302 81 1 270 2489 30 268 0 0 631 273 1303
 82 3 1300 6 0 3 82 3 1303 54 4 0 80 1 1301 1304 1305 8038 0 0 0 0 0 0 0 0 0 TTT
TTTTTTTTTTF10 81 1 14 3800 1304 1 1299 2 0 0 1306 98 255 9 1302 112 97 114 116 7
0 114 111 110 116 80 1 1304 1307 1308 8017 0 0 0 0 0 0 0 0 0 TTTTTTTTTTTTTF3 84
 255 9 1306 partFront79 255 13 1308 SDL/TYSA_NAME79 14 1305 SDL/TYSA_UNAME82 3 6
23 39 0 2 82 3 616 39 1 2 82 3 607 28 1 2 82 3 600 28 0 2 82 3 591 17 0 2 82 3 5
84 17 1 2 79 15 575 SDL/TYSA_COLOUR83 3 569 .615686274509804 .811764705882353 .9
29411764705882 83 3 560 .615686274509804 .811764705882353 .929411764705882 83 3
 553 .615686274509804 .811764705882353 .929411764705882 83 3 546 .61568627450980
4 .811764705882353 .929411764705882 83 3 535 .615686274509804 .811764705882353 .
929411764705882 83 3 524 .615686274509804 .811764705882353 .929411764705882 83 3
 518 .615686274509804 .811764705882353 .929411764705882 81 1 454 3776 30 38 0 0
 451 24 1309 82 3 464 75 2 1 81 1 451 3775 30 449 0 0 66 454 1310 82 3 1309 75 1
 1 81 1 66 3774 30 64 0 0 62 451 1311 82 3 1310 75 0 1 81 1 62 3773 30 60 0 0 58
 66 1312 82 3 1311 75 7 0 81 1 58 3772 30 56 0 0 42 62 1313 82 3 1312 75 6 0 81
 1 42 3771 30 53 0 0 32 58 1314 82 3 1313 75 5 0 82 3 1314 75 4 0 79 9 463 BTI/D
etId81 1 275 2495 30 309 0 0 273 308 1315 82 3 1315 54 4 1 82 3 312 54 5 1 82 3
 276 54 5 0 82 3 43 75 3 0 82 3 33 75 2 0 19 18 586 0 1 0 10 6 S0 74 4 CI16 inde
x_map_offset0 0 1 dCCZ20 16 5 0 0 563 1299 14 2 511 0 0 0 0 0 0 0 0 0 0 0 0 0 0
 0 80 1 13 516 1316 8040 0 0 0 0 3 5 0 0 0 TTTFFFFFFFFFFF2 83 3 15 .615686274509
804 .811764705882353 .929411764705882 79 17 1316 SDL/TYSA_COLOUR_21 0 
